<svg width="18" height="18" viewBox="0 0 18 18" fill="none" xmlns="http://www.w3.org/2000/svg">
<path d="M3.75 7.5C3.00832 7.5 2.2833 7.28007 1.66661 6.86801C1.04993 6.45596 0.569282 5.87029 0.285453 5.18506C0.00162482 4.49984 -0.0726377 3.74584 0.0720569 3.01841C0.216751 2.29098 0.573904 1.6228 1.09835 1.09835C1.6228 0.573904 2.29098 0.216751 3.01841 0.0720569C3.74584 -0.0726377 4.49984 0.00162482 5.18506 0.285453C5.87029 0.569282 6.45596 1.04993 6.86801 1.66661C7.28007 2.2833 7.5 3.00832 7.5 3.75C7.49901 4.74426 7.1036 5.69751 6.40056 6.40056C5.69751 7.1036 4.74426 7.49901 3.75 7.5ZM3.75 1.5C3.30499 1.5 2.86998 1.63196 2.49997 1.8792C2.12996 2.12643 1.84157 2.47783 1.67127 2.88896C1.50098 3.3001 1.45642 3.7525 1.54323 4.18895C1.63005 4.62541 1.84434 5.02632 2.15901 5.34099C2.47368 5.65566 2.87459 5.86995 3.31105 5.95677C3.74751 6.04359 4.19991 5.99903 4.61104 5.82873C5.02217 5.65843 5.37358 5.37005 5.62081 5.00003C5.86804 4.63002 6 4.19501 6 3.75C5.99941 3.15345 5.76216 2.5815 5.34033 2.15967C4.91851 1.73784 4.34656 1.5006 3.75 1.5ZM1.66943e-06 16.9395L16.9388 1.66943e-06L18 1.06125L1.0605 18L1.66943e-06 16.9395ZM14.25 18C13.5083 18 12.7833 17.7801 12.1666 17.368C11.5499 16.956 11.0693 16.3703 10.7855 15.6851C10.5016 14.9998 10.4274 14.2458 10.5721 13.5184C10.7168 12.791 11.0739 12.1228 11.5984 11.5984C12.1228 11.0739 12.791 10.7168 13.5184 10.5721C14.2458 10.4274 14.9998 10.5016 15.6851 10.7855C16.3703 11.0693 16.956 11.5499 17.368 12.1666C17.7801 12.7833 18 13.5083 18 14.25C17.999 15.2443 17.6036 16.1975 16.9006 16.9006C16.1975 17.6036 15.2443 17.999 14.25 18ZM14.25 12C13.805 12 13.37 12.132 13 12.3792C12.63 12.6264 12.3416 12.9778 12.1713 13.389C12.001 13.8001 11.9564 14.2525 12.0432 14.689C12.1301 15.1254 12.3443 15.5263 12.659 15.841C12.9737 16.1557 13.3746 16.37 13.811 16.4568C14.2475 16.5436 14.6999 16.499 15.111 16.3287C15.5222 16.1584 15.8736 15.87 16.1208 15.5C16.368 15.13 16.5 14.695 16.5 14.25C16.4994 13.6534 16.2622 13.0815 15.8403 12.6597C15.4185 12.2378 14.8466 12.0006 14.25 12Z" fill="#34d399"/>
</svg>